<mxfile host="Electron" modified="2024-03-01T09:16:33.934Z" agent="Mozilla/5.0 (Windows NT 10.0; Win64; x64) AppleWebKit/537.36 (KHTML, like Gecko) draw.io/22.1.21 Chrome/120.0.6099.109 Electron/28.1.0 Safari/537.36" etag="fEJUqgNeyKRfcFgnec47" version="22.1.21" type="device" pages="7">
  <diagram name="比邻星上位机主页" id="kdCVsliPqpUGAceHK68h">
    <mxGraphModel dx="1434" dy="836" grid="1" gridSize="10" guides="1" tooltips="1" connect="1" arrows="1" fold="1" page="1" pageScale="1" pageWidth="827" pageHeight="1169" math="0" shadow="0">
      <root>
        <mxCell id="0" />
        <mxCell id="1" parent="0" />
        <mxCell id="9ZZKjQBNu1Qiikx7I2Lo-1" value="" style="rounded=0;whiteSpace=wrap;html=1;" vertex="1" parent="1">
          <mxGeometry x="90" y="150" width="1150" height="610" as="geometry" />
        </mxCell>
        <mxCell id="9ZZKjQBNu1Qiikx7I2Lo-2" value="" style="rounded=0;whiteSpace=wrap;html=1;fillColor=#eeeeee;strokeColor=#36393d;" vertex="1" parent="1">
          <mxGeometry x="177" y="150" width="1063" height="60" as="geometry" />
        </mxCell>
        <mxCell id="9ZZKjQBNu1Qiikx7I2Lo-3" value="" style="rounded=0;whiteSpace=wrap;html=1;fillColor=#eeeeee;strokeColor=#36393d;" vertex="1" parent="1">
          <mxGeometry x="90" y="150" width="90" height="610" as="geometry" />
        </mxCell>
        <mxCell id="9ZZKjQBNu1Qiikx7I2Lo-5" value="" style="rounded=0;whiteSpace=wrap;html=1;fillColor=#eeeeee;strokeColor=#36393d;" vertex="1" parent="1">
          <mxGeometry x="90" y="150" width="90" height="60" as="geometry" />
        </mxCell>
        <UserObject label="命令控制" link="data:page/id,jZTdJU1w4oR5Q9mrEqW2" id="9ZZKjQBNu1Qiikx7I2Lo-6">
          <mxCell style="rounded=0;whiteSpace=wrap;html=1;fillColor=#eeeeee;strokeColor=#36393d;" vertex="1" parent="1">
            <mxGeometry x="90" y="210" width="90" height="60" as="geometry" />
          </mxCell>
        </UserObject>
        <UserObject label="示教控制" link="data:page/id,wBuiMsIkNqNbbq9J8DDe" id="9ZZKjQBNu1Qiikx7I2Lo-7">
          <mxCell style="rounded=0;whiteSpace=wrap;html=1;fillColor=#eeeeee;strokeColor=#36393d;" vertex="1" parent="1">
            <mxGeometry x="90" y="270" width="90" height="60" as="geometry" />
          </mxCell>
        </UserObject>
        <UserObject label="连接配置" link="data:page/id,wBuiMsIkNqNbbq9J8DDe" id="9ZZKjQBNu1Qiikx7I2Lo-8">
          <mxCell style="rounded=0;whiteSpace=wrap;html=1;fillColor=#eeeeee;strokeColor=#36393d;" vertex="1" parent="1">
            <mxGeometry x="90" y="330" width="90" height="60" as="geometry" />
          </mxCell>
        </UserObject>
        <UserObject label="硬件配置" link="data:page/id,_jzspcUNG9Sj6vJ754NF" id="9ZZKjQBNu1Qiikx7I2Lo-11">
          <mxCell style="rounded=0;whiteSpace=wrap;html=1;fillColor=#eeeeee;strokeColor=#36393d;" vertex="1" parent="1">
            <mxGeometry x="90" y="700" width="90" height="60" as="geometry" />
          </mxCell>
        </UserObject>
        <UserObject label="系统信息" link="data:page/id,mgBM0N7abYoMXPjXOnGD" id="9ZZKjQBNu1Qiikx7I2Lo-12">
          <mxCell style="rounded=0;whiteSpace=wrap;html=1;fillColor=#eeeeee;strokeColor=#36393d;" vertex="1" parent="1">
            <mxGeometry x="90" y="640" width="90" height="60" as="geometry" />
          </mxCell>
        </UserObject>
        <mxCell id="9ZZKjQBNu1Qiikx7I2Lo-13" value="Logo&lt;br&gt;主页" style="text;html=1;strokeColor=none;fillColor=none;align=center;verticalAlign=middle;whiteSpace=wrap;rounded=0;" vertex="1" parent="1">
          <mxGeometry x="105" y="165" width="60" height="30" as="geometry" />
        </mxCell>
        <mxCell id="9ZZKjQBNu1Qiikx7I2Lo-14" value="连接状态" style="rounded=0;whiteSpace=wrap;html=1;" vertex="1" parent="1">
          <mxGeometry x="180" y="150" width="100" height="60" as="geometry" />
        </mxCell>
        <mxCell id="9ZZKjQBNu1Qiikx7I2Lo-15" value="急停" style="rounded=0;whiteSpace=wrap;html=1;fillColor=#e51400;fontColor=#ffffff;strokeColor=#B20000;" vertex="1" parent="1">
          <mxGeometry x="1140" y="150" width="100" height="60" as="geometry" />
        </mxCell>
        <mxCell id="9ZZKjQBNu1Qiikx7I2Lo-17" value="复位" style="rounded=0;whiteSpace=wrap;html=1;fillColor=#cdeb8b;strokeColor=#36393d;" vertex="1" parent="1">
          <mxGeometry x="940" y="150" width="100" height="60" as="geometry" />
        </mxCell>
        <mxCell id="9ZZKjQBNu1Qiikx7I2Lo-19" value="日志" style="rounded=0;whiteSpace=wrap;html=1;fillColor=#cce5ff;strokeColor=#36393d;" vertex="1" parent="1">
          <mxGeometry x="840" y="150" width="100" height="60" as="geometry" />
        </mxCell>
        <mxCell id="9ZZKjQBNu1Qiikx7I2Lo-22" value="归零" style="rounded=0;whiteSpace=wrap;html=1;fillColor=#ffff88;strokeColor=#36393d;" vertex="1" parent="1">
          <mxGeometry x="1040" y="150" width="100" height="60" as="geometry" />
        </mxCell>
        <mxCell id="9ZZKjQBNu1Qiikx7I2Lo-23" value="比邻星六轴机械臂 Studio V4.1.0&amp;nbsp; &amp;nbsp; &amp;nbsp; &amp;nbsp; &amp;nbsp; &amp;nbsp; &amp;nbsp; &amp;nbsp; &amp;nbsp; &amp;nbsp; &amp;nbsp;&amp;nbsp;" style="rounded=0;whiteSpace=wrap;html=1;align=left;fillColor=#1ba1e2;strokeColor=#006EAF;fontColor=#ffffff;" vertex="1" parent="1">
          <mxGeometry x="90" y="120" width="1150" height="30" as="geometry" />
        </mxCell>
        <UserObject label="模型配置" link="data:page/id,A8kg1X7o8h039J57Xl5Q" id="CRGWw9zKuCLO68ZtZVZj-1">
          <mxCell style="rounded=0;whiteSpace=wrap;html=1;fillColor=#eeeeee;strokeColor=#36393d;" vertex="1" parent="1">
            <mxGeometry x="90" y="390" width="90" height="60" as="geometry" />
          </mxCell>
        </UserObject>
      </root>
    </mxGraphModel>
  </diagram>
  <diagram id="jZTdJU1w4oR5Q9mrEqW2" name="命令控制页面">
    <mxGraphModel dx="1434" dy="836" grid="1" gridSize="10" guides="1" tooltips="1" connect="1" arrows="1" fold="1" page="1" pageScale="1" pageWidth="827" pageHeight="1169" math="0" shadow="0">
      <root>
        <mxCell id="0" />
        <mxCell id="1" parent="0" />
      </root>
    </mxGraphModel>
  </diagram>
  <diagram id="wBuiMsIkNqNbbq9J8DDe" name="示教控制页面">
    <mxGraphModel dx="1434" dy="836" grid="1" gridSize="10" guides="1" tooltips="1" connect="1" arrows="1" fold="1" page="1" pageScale="1" pageWidth="827" pageHeight="1169" math="0" shadow="0">
      <root>
        <mxCell id="0" />
        <mxCell id="1" parent="0" />
      </root>
    </mxGraphModel>
  </diagram>
  <diagram id="7ShJtWkjREFudnDSQyqg" name="连接配置页面">
    <mxGraphModel dx="1434" dy="836" grid="1" gridSize="10" guides="1" tooltips="1" connect="1" arrows="1" fold="1" page="1" pageScale="1" pageWidth="827" pageHeight="1169" math="0" shadow="0">
      <root>
        <mxCell id="0" />
        <mxCell id="1" parent="0" />
      </root>
    </mxGraphModel>
  </diagram>
  <diagram id="A8kg1X7o8h039J57Xl5Q" name="模型配置页面">
    <mxGraphModel dx="1434" dy="836" grid="1" gridSize="10" guides="1" tooltips="1" connect="1" arrows="1" fold="1" page="1" pageScale="1" pageWidth="827" pageHeight="1169" math="0" shadow="0">
      <root>
        <mxCell id="0" />
        <mxCell id="1" parent="0" />
      </root>
    </mxGraphModel>
  </diagram>
  <diagram id="mgBM0N7abYoMXPjXOnGD" name="系统信息">
    <mxGraphModel dx="1434" dy="836" grid="1" gridSize="10" guides="1" tooltips="1" connect="1" arrows="1" fold="1" page="1" pageScale="1" pageWidth="827" pageHeight="1169" math="0" shadow="0">
      <root>
        <mxCell id="0" />
        <mxCell id="1" parent="0" />
      </root>
    </mxGraphModel>
  </diagram>
  <diagram id="_jzspcUNG9Sj6vJ754NF" name="硬件配置">
    <mxGraphModel dx="1434" dy="836" grid="1" gridSize="10" guides="1" tooltips="1" connect="1" arrows="1" fold="1" page="1" pageScale="1" pageWidth="827" pageHeight="1169" math="0" shadow="0">
      <root>
        <mxCell id="0" />
        <mxCell id="1" parent="0" />
      </root>
    </mxGraphModel>
  </diagram>
</mxfile>
